<svg width="108" height="48" viewBox="0 0 108 48" fill="none" xmlns="http://www.w3.org/2000/svg">
<g clip-path="url(#clip0_1_4195)">
<path fill-rule="evenodd" clip-rule="evenodd" d="M66.5693 37.8069C60.3548 42.4973 51.3474 44.9998 43.5922 44.9998C32.7181 44.9998 22.9287 40.8814 15.5226 34.0316C14.9407 33.493 15.462 32.7589 16.1603 33.1784C24.1529 37.9403 34.0355 40.8051 44.2439 40.8051C51.1286 40.8051 58.7023 39.3465 65.6662 36.3196C66.7182 35.862 67.598 37.0251 66.5693 37.8069Z" fill="#FF9900"/>
<path fill-rule="evenodd" clip-rule="evenodd" d="M69.1529 34.78C68.3615 33.7409 63.902 34.2891 61.9004 34.5322C61.2906 34.6084 61.1975 34.065 61.7468 33.6741C65.2985 31.1144 71.1266 31.8533 71.8062 32.7113C72.4858 33.574 71.6293 39.5563 68.2917 42.4115C67.7796 42.8501 67.2909 42.6165 67.519 42.035C68.2684 40.1187 69.9489 35.8239 69.1529 34.78Z" fill="#FF9900"/>
<path fill-rule="evenodd" clip-rule="evenodd" d="M62.0403 15.6036V13.1154C62.0403 12.7388 62.3196 12.4862 62.6548 12.4862H73.5335C73.8826 12.4862 74.1619 12.7436 74.1619 13.1154V15.2461C74.1573 15.6036 73.864 16.0708 73.3427 16.8096L67.7055 25.0513C69.8002 24.9988 72.0113 25.3182 73.9106 26.4145C74.3388 26.6624 74.4552 27.0247 74.4878 27.3822V30.0373C74.4878 30.3995 74.0968 30.8238 73.6871 30.6045C70.3402 28.8074 65.8947 28.612 62.1939 30.6236C61.8169 30.8333 61.4212 30.4138 61.4212 30.0516V27.53C61.4212 27.1248 61.4259 26.4336 61.8215 25.8187L68.3525 16.2281H62.6688C62.3196 16.2281 62.0403 15.9754 62.0403 15.6036Z" fill="black"/>
<path fill-rule="evenodd" clip-rule="evenodd" d="M22.3565 31.1289H19.0468C18.7302 31.105 18.4788 30.8619 18.4556 30.5521V13.1583C18.4556 12.8104 18.7395 12.5339 19.0933 12.5339H22.1796C22.5008 12.5482 22.7568 12.8008 22.7801 13.1154V15.3892H22.8406C23.6459 13.1917 25.1588 12.1669 27.1977 12.1669C29.2691 12.1669 30.5632 13.1917 31.4942 15.3892C32.2949 13.1917 34.115 12.1669 36.0654 12.1669C37.4526 12.1669 38.9701 12.7532 39.8965 14.0688C40.9439 15.5322 40.7297 17.6581 40.7297 19.5219L40.7251 30.4997C40.7251 30.8476 40.4411 31.1289 40.0873 31.1289H36.7823C36.4518 31.105 36.1865 30.8333 36.1865 30.4997V21.2808C36.1865 20.5468 36.2516 18.7163 36.0934 18.0204C35.8466 16.8526 35.1065 16.5236 34.1476 16.5236C33.3469 16.5236 32.509 17.0718 32.1692 17.9489C31.8294 18.826 31.862 20.2941 31.862 21.2808V30.4997C31.862 30.8476 31.578 31.1289 31.2242 31.1289H27.9192C27.584 31.105 27.3233 30.8333 27.3233 30.4997L27.3187 21.2808C27.3187 19.3408 27.6306 16.4855 25.2798 16.4855C22.9011 16.4855 22.9942 19.2693 22.9942 21.2808V30.4997C22.9942 30.8476 22.7102 31.1289 22.3565 31.1289Z" fill="black"/>
<path fill-rule="evenodd" clip-rule="evenodd" d="M83.5277 12.1669C88.4387 12.1669 91.0967 16.4855 91.0967 21.9768C91.0967 27.2821 88.1594 31.4911 83.5277 31.4911C78.7051 31.4911 76.0797 27.1725 76.0797 21.7909C76.0797 16.3759 78.7377 12.1669 83.5277 12.1669ZM83.5556 15.7181C81.1164 15.7181 80.9628 19.1215 80.9628 21.2427C80.9628 23.3686 80.9302 27.9066 83.5277 27.9066C86.0926 27.9066 86.2136 24.2457 86.2136 22.0149C86.2136 20.5468 86.1531 18.7926 85.7202 17.4007C85.3478 16.19 84.6076 15.7181 83.5556 15.7181Z" fill="black"/>
<path fill-rule="evenodd" clip-rule="evenodd" d="M97.4648 31.1289H94.1691C93.8386 31.105 93.5733 30.8333 93.5733 30.4997L93.5686 13.1011C93.5966 12.7818 93.8712 12.5339 94.2064 12.5339H97.274C97.5626 12.5482 97.8 12.7484 97.8652 13.0201V15.6799H97.9257C98.852 13.3013 100.151 12.1669 102.436 12.1669C103.921 12.1669 105.369 12.715 106.3 14.2166C107.166 15.6084 107.166 17.9489 107.166 19.6315V30.5807C107.129 30.8858 106.854 31.1289 106.528 31.1289H103.209C102.907 31.105 102.655 30.8762 102.623 30.5807V21.1331C102.623 19.2311 102.837 16.4474 100.551 16.4474C99.7458 16.4474 99.0057 17.0003 98.6379 17.8393C98.1724 18.9022 98.1119 19.9605 98.1119 21.1331V30.4997C98.1072 30.8476 97.8186 31.1289 97.4648 31.1289Z" fill="black"/>
<path fill-rule="evenodd" clip-rule="evenodd" d="M53.3681 22.8204C53.3681 24.1408 53.4007 25.2419 52.749 26.4146C52.223 27.3679 51.3851 27.9542 50.4587 27.9542C49.1879 27.9542 48.4431 26.9627 48.4431 25.4993C48.4431 22.6107 50.9708 22.0864 53.3681 22.0864V22.8204ZM56.7057 31.0812C56.4869 31.2814 56.1704 31.2957 55.9237 31.1622C54.8251 30.2279 54.6249 29.7942 54.0245 28.9028C52.209 30.7999 50.9196 31.3672 48.5688 31.3672C45.7805 31.3672 43.6159 29.6083 43.6159 26.0857C43.6159 23.3353 45.0682 21.4619 47.1444 20.5467C48.9412 19.7364 51.4502 19.5934 53.3681 19.3693V18.9308C53.3681 18.1252 53.4286 17.1719 52.9631 16.476C52.5628 15.8515 51.7901 15.5941 51.1058 15.5941C49.8443 15.5941 48.7224 16.2567 48.4478 17.6295C48.3919 17.9346 48.1731 18.2349 47.8705 18.2492L44.6633 17.8964C44.3933 17.8345 44.0907 17.6104 44.1698 17.1862C44.9053 13.2012 48.4245 12 51.5713 12C53.1819 12 55.286 12.4385 56.5568 13.6874C58.1674 15.2271 58.0138 17.2815 58.0138 19.5171V24.7986C58.0138 26.386 58.6562 27.0819 59.2613 27.9399C59.4708 28.245 59.5173 28.612 59.2473 28.8408C58.5724 29.4176 57.3714 30.4901 56.7104 31.0907L56.7057 31.0812Z" fill="black"/>
<path fill-rule="evenodd" clip-rule="evenodd" d="M9.97878 22.8204C9.97878 24.1408 10.0114 25.2419 9.35966 26.4145C8.83364 27.3679 8.0004 27.9542 7.0694 27.9542C5.79859 27.9542 5.05845 26.9627 5.05845 25.4993C5.05845 22.6107 7.58611 22.0864 9.97878 22.0864V22.8204ZM13.3164 31.0812C13.0976 31.2814 12.7811 31.2957 12.5344 31.1622C11.4358 30.2279 11.2403 29.7941 10.6351 28.9028C8.81968 30.7999 7.5349 31.3672 5.17947 31.3672C2.39579 31.3672 0.226562 29.6082 0.226562 26.0856C0.226562 23.3352 1.68357 21.4619 3.75505 20.5467C5.55187 19.7364 8.06092 19.5934 9.97878 19.3693V18.9308C9.97878 18.1252 10.0393 17.1719 9.57845 16.4759C9.17346 15.8515 8.40073 15.5941 7.7211 15.5941C6.4596 15.5941 5.33309 16.2567 5.05845 17.6295C5.00258 17.9346 4.7838 18.2349 4.48588 18.2492L1.27394 17.8964C1.00395 17.8345 0.706026 17.6104 0.780506 17.1862C1.52065 13.2012 5.03517 12 8.18195 12C9.79257 12 11.8966 12.4385 13.1674 13.6874C14.7781 15.2271 14.6245 17.2815 14.6245 19.5171V24.7986C14.6245 26.3859 15.2668 27.0819 15.872 27.9399C16.0861 28.245 16.1327 28.612 15.8627 28.8408C15.1877 29.4176 13.9867 30.4901 13.3257 31.0907L13.3164 31.0812Z" fill="black"/>
</g>
<defs>
<clipPath id="clip0_1_4195">
<rect width="107.422" height="48" fill="white" transform="translate(0.226562)"/>
</clipPath>
</defs>
</svg>
