<svg width="38" height="19" viewBox="0 0 38 19" fill="none" xmlns="http://www.w3.org/2000/svg">
<g clip-path="url(#clip0_1_3958)">
<path d="M34.8452 0.0306396C36.663 0.0306396 37.9552 1.3972 37.9552 3.07186C37.9552 4.74651 36.663 6.11307 34.8452 6.11307C33.0109 6.11307 31.7427 4.74651 31.7427 3.07186C31.7427 1.3972 33.0109 0.0306396 34.8452 0.0306396Z" fill="#B0B2C6"/>
<path d="M0.748773 8.25071H1.84623V13.9513H0.748773V8.25071ZM8.51218 13.1877C8.11431 13.6018 7.49596 14.0648 6.24516 14.0648C4.56251 14.0648 3.2628 12.7902 3.2628 11.0849C3.2628 9.29012 4.70922 8.13641 6.29407 8.13641C7.40727 8.13641 8.13918 8.66482 8.49643 8.98948L7.83 9.7854C7.5946 9.55018 7.06576 9.11951 6.30981 9.11951C5.24552 9.11951 4.44066 9.99576 4.44066 11.0849C4.44066 12.14 5.18003 13.066 6.35043 13.066C7.00028 13.066 7.55315 12.7496 7.86233 12.4572L8.51218 13.1877ZM13.5469 9.17666H12.1245V13.9513H11.027V9.17666H9.60466V8.25071H13.5469V9.17666ZM20.6132 11.2472H18.6056V13.9513H17.5082V8.25071H18.6056V10.3213H20.6132V8.25071H21.7106V13.9513H20.6132V11.2472ZM23.4124 8.25071H24.5098V11.8973C24.5098 12.5873 24.9889 13.0991 25.6073 13.0991C26.2248 13.0991 26.713 12.5873 26.713 11.8973V8.25071H27.8188V11.9454C27.8188 13.066 27.0711 14.0648 25.5998 14.0648C24.1368 14.0648 23.414 13.066 23.414 11.9454V8.25071H23.4124ZM29.5114 8.29957C29.8935 8.23414 30.332 8.17782 30.763 8.17782C31.8679 8.17782 32.9405 8.51077 32.9405 9.72908C32.9405 10.2649 32.6073 10.6716 32.4199 10.8016C32.851 10.9225 33.4196 11.4269 33.4196 12.2543C33.4196 12.4332 33.3947 12.6121 33.3218 12.7662C33.1187 13.6184 32.2575 14.0333 30.7936 14.0333C30.4041 14.0333 29.9813 14.0002 29.5097 13.9439V8.29957H29.5114ZM30.6163 10.4836H31.388C31.6242 10.4107 31.8513 10.1672 31.8513 9.83343C31.8513 9.27356 31.4045 9.12779 30.9976 9.12779C30.8591 9.12779 30.7215 9.14353 30.6154 9.16009V10.4836H30.6163ZM30.6163 13.0088C30.7622 13.0171 30.9172 13.0337 31.063 13.0337C31.7212 13.0337 32.2906 12.7985 32.2906 12.1731C32.2906 11.8154 32.0221 11.4095 31.5919 11.3284H30.6163V13.0088ZM1.66719 18.7003V18.9024H0.744629V17.2874H1.63818V17.492H0.985837V17.8895H1.51053V18.0941H0.985837V18.6987H1.66719V18.7003ZM2.18359 18.9032V17.2816L2.22254 17.27L2.86908 17.9069L3.51396 17.27L3.55292 17.2816V18.9032H3.31337V17.7852L2.88069 18.22H2.85499L2.42231 17.7852V18.9032H2.18359ZM4.36772 18.4336V18.9032H4.12568V17.2998C4.72166 17.1731 5.12284 17.424 5.12284 17.8357C5.12284 18.2266 4.78465 18.4568 4.36772 18.4336ZM4.36772 18.2175C4.69928 18.2448 4.87417 18.0676 4.87417 17.8357C4.87417 17.6236 4.69264 17.4448 4.36772 17.4953V18.2175ZM6.34131 17.2559C6.83367 17.2559 7.19093 17.6286 7.19093 18.0974C7.19093 18.5645 6.8345 18.9347 6.34131 18.9347C5.84895 18.9347 5.49418 18.5645 5.49418 18.0974C5.49418 17.6286 5.84812 17.2559 6.34131 17.2559ZM6.34131 18.7194C6.65712 18.7194 6.93066 18.4709 6.93066 18.0982C6.93066 17.7255 6.65712 17.4704 6.34131 17.4704C6.02385 17.4704 5.75446 17.7255 5.75446 18.0982C5.75446 18.4709 6.02302 18.7194 6.34131 18.7194ZM9.60052 17.2882L8.9747 18.9215H8.93989L8.51135 17.7992L8.08282 18.9215H8.048L7.43545 17.2882H7.69987L8.0795 18.3442L8.49809 17.27H8.53291L8.95398 18.3583L9.35185 17.289H9.60052V17.2882ZM10.9201 18.7003V18.9024H9.99673V17.2874H10.8903V17.492H10.2388V17.8895H10.7635V18.0941H10.2388V18.6987H10.9201V18.7003ZM12.1568 18.2796L12.6061 18.9032H12.3002L11.9339 18.3649C11.8559 18.3806 11.7747 18.3856 11.6786 18.3765V18.9032H11.4365V17.2998C12.0648 17.1756 12.4221 17.4125 12.4221 17.8125C12.4212 17.9872 12.3359 18.1694 12.1568 18.2796ZM11.6777 18.1603C11.9861 18.1951 12.1726 18.0411 12.1726 17.815C12.1726 17.6079 12.0043 17.4448 11.6777 17.4978V18.1603ZM13.0064 17.2882H13.2485V18.9032H13.0064V17.2882ZM14.9925 17.2882V18.9032H14.7579V18.2084L14.0558 17.709V18.9024H13.8212V17.2832L13.8536 17.2692L14.7579 17.9201V17.2874H14.9925V17.2882ZM16.4754 18.1487H16.9727V18.6821C16.763 18.8842 16.5466 18.9347 16.3278 18.9347C15.8006 18.9347 15.455 18.5579 15.455 18.0932C15.455 17.6029 15.8487 17.2559 16.3021 17.2559C16.6179 17.2559 16.8019 17.3843 16.9213 17.4928C16.8732 17.5499 16.8202 17.6054 16.7713 17.6626C16.6743 17.5748 16.5317 17.4696 16.3112 17.4696C15.9822 17.4696 15.7194 17.7413 15.7194 18.0883C15.7194 18.456 15.9722 18.721 16.3361 18.721C16.4878 18.721 16.6511 18.6589 16.734 18.5902V18.3483H16.4737V18.1487H16.4754ZM18.2343 17.2882H18.4763V18.9032H18.2343V17.2882ZM20.2211 17.2882V18.9032H19.9865V18.2084L19.2845 17.709V18.9024H19.0499V17.2832L19.0822 17.2692L19.9865 17.9201V17.2874H20.2211V17.2882ZM21.9659 17.2882V18.9032H21.7314V18.2084L21.0293 17.709V18.9024H20.7947V17.2832L20.827 17.2692L21.7314 17.9201V17.2874H21.9659V17.2882ZM23.2764 17.2559C23.7688 17.2559 24.126 17.6286 24.126 18.0974C24.126 18.5645 23.7696 18.9347 23.2764 18.9347C22.7841 18.9347 22.4293 18.5645 22.4293 18.0974C22.4293 17.6286 22.7832 17.2559 23.2764 17.2559ZM23.2764 18.7194C23.5922 18.7194 23.8658 18.4709 23.8658 18.0982C23.8658 17.7255 23.5922 17.4704 23.2764 17.4704C22.959 17.4704 22.6896 17.7255 22.6896 18.0982C22.6896 18.4709 22.959 18.7194 23.2764 18.7194ZM25.8269 17.2882L25.1132 18.9215H25.0809L24.3722 17.2882H24.6458L25.1016 18.3922L25.5716 17.2882H25.8269ZM25.8021 18.9032L26.5547 17.27H26.587L27.3305 18.9032H27.0636L26.9186 18.5744H26.2165L26.0714 18.9032H25.8021ZM26.301 18.374H26.8307L26.568 17.7595L26.301 18.374ZM28.5415 17.4928H28.1246V18.9024H27.8826V17.4928H27.4706V17.2882H28.5407V17.4928H28.5415ZM28.9883 17.2882H29.2304V18.9032H28.9883V17.2882ZM30.54 17.2559C31.0324 17.2559 31.3896 17.6286 31.3896 18.0974C31.3896 18.5645 31.0332 18.9347 30.54 18.9347C30.0476 18.9347 29.6929 18.5645 29.6929 18.0974C29.6929 17.6286 30.0468 17.2559 30.54 17.2559ZM30.54 18.7194C30.8558 18.7194 31.1293 18.4709 31.1293 18.0982C31.1293 17.7255 30.8558 17.4704 30.54 17.4704C30.2225 17.4704 29.9532 17.7255 29.9532 18.0982C29.9532 18.4709 30.2217 18.7194 30.54 18.7194ZM33.0259 17.2882V18.9032H32.7913V18.2084L32.0892 17.709V18.9024H31.8546V17.2832L31.887 17.2692L32.7913 17.9201V17.2874H33.0259V17.2882Z" fill="#B0B2C6"/>
</g>
<defs>
<clipPath id="clip0_1_3958">
<rect width="37.3002" height="18.9662" fill="white" transform="translate(0.699829)"/>
</clipPath>
</defs>
</svg>
