<svg width="50" height="11" viewBox="0 0 50 11" fill="none" xmlns="http://www.w3.org/2000/svg">
<g opacity="0.5" clip-path="url(#clip0_1_3952)">
<path d="M17.8674 6.2726L17.577 7.0943H17.5528C17.5044 6.90901 17.4157 6.62706 17.2705 6.28871L15.714 2.38161H14.1897V8.60881H15.1978V4.76615C15.1978 4.52447 15.1978 4.25057 15.1898 3.91223C15.1817 3.74305 15.1656 3.61416 15.1575 3.51749H15.1817C15.2301 3.75916 15.2865 3.93639 15.3269 4.04918L17.198 8.59269H17.9077L19.7626 4.0089C19.803 3.90417 19.8433 3.69472 19.8836 3.51749H19.9078C19.8836 3.97667 19.8675 4.38752 19.8594 4.63726V8.58464H20.9321V2.3655H19.4642L17.8674 6.2726ZM21.9483 4.12168H22.9967V8.58464H21.9483V4.12168ZM22.4806 2.2366C22.3031 2.2366 22.158 2.30105 22.037 2.41383C21.916 2.52661 21.8515 2.67162 21.8515 2.84885C21.8515 3.01802 21.916 3.16303 22.037 3.27581C22.158 3.38859 22.3031 3.44498 22.4806 3.44498C22.658 3.44498 22.8112 3.38054 22.9241 3.27581C23.0451 3.16303 23.1096 3.01802 23.1096 2.84885C23.1096 2.67968 23.0451 2.53467 22.9241 2.41383C22.8193 2.30105 22.6661 2.2366 22.4806 2.2366ZM26.7147 4.0814C26.5212 4.04112 26.3195 4.01695 26.126 4.01695C25.6501 4.01695 25.2146 4.12168 24.8517 4.33113C24.4888 4.54059 24.1984 4.8306 24.0129 5.19311C23.8194 5.56368 23.7226 5.99064 23.7226 6.48205C23.7226 6.90902 23.8194 7.28764 24.0049 7.63404C24.1904 7.97239 24.4484 8.24629 24.7952 8.43158C25.1259 8.61686 25.513 8.71353 25.9485 8.71353C26.4486 8.71353 26.876 8.60881 27.2148 8.41547L27.2228 8.40741V7.4407L27.1825 7.47293C27.0293 7.58571 26.8518 7.68238 26.6744 7.73877C26.4889 7.80322 26.3195 7.83544 26.1744 7.83544C25.755 7.83544 25.4243 7.7146 25.1904 7.44876C24.9485 7.19097 24.8275 6.83651 24.8275 6.39344C24.8275 5.93425 24.9485 5.57174 25.1985 5.30589C25.4485 5.04005 25.7792 4.9031 26.1824 4.9031C26.5212 4.9031 26.868 5.01588 27.1825 5.24145L27.2228 5.27367V4.25057L27.2148 4.24252C27.0777 4.18613 26.9244 4.12168 26.7147 4.0814ZM30.1746 4.04918C29.9165 4.04918 29.6746 4.12973 29.4649 4.29891C29.2875 4.44391 29.1665 4.65337 29.0617 4.9031H29.0536V4.12168H28.0051V8.58464H29.0536V6.30482C29.0536 5.91814 29.1342 5.59591 29.3117 5.36229C29.4891 5.12061 29.7149 4.99977 29.9891 4.99977C30.0859 4.99977 30.1827 5.02394 30.3037 5.04005C30.4166 5.07227 30.4972 5.1045 30.5537 5.14478L30.594 5.177V4.12973L30.5698 4.12168C30.4972 4.07334 30.3521 4.04918 30.1746 4.04918ZM33.0297 4.02501C32.2957 4.02501 31.707 4.24252 31.2957 4.66948C30.8763 5.09644 30.6747 5.68452 30.6747 6.42566C30.6747 7.11847 30.8844 7.68238 31.2876 8.09323C31.6909 8.49602 32.2393 8.70548 32.9248 8.70548C33.6426 8.70548 34.2152 8.48797 34.6265 8.05295C35.0459 7.61793 35.2476 7.03791 35.2476 6.32094C35.2476 5.61202 35.054 5.04811 34.6588 4.63726C34.2797 4.22641 33.7233 4.02501 33.0297 4.02501ZM33.8684 7.45681C33.6749 7.70655 33.3684 7.82739 32.9893 7.82739C32.6103 7.82739 32.3038 7.70655 32.0861 7.4407C31.8683 7.19097 31.7634 6.82846 31.7634 6.36927C31.7634 5.89397 31.8764 5.53146 32.0861 5.27367C32.3038 5.01588 32.6022 4.88699 32.9813 4.88699C33.3523 4.88699 33.6426 5.00783 33.8523 5.25756C34.062 5.50729 34.1749 5.86981 34.1749 6.3451C34.1588 6.82846 34.0701 7.20708 33.8684 7.45681ZM37.5864 5.97453C37.2557 5.83758 37.0461 5.73286 36.9493 5.64424C36.8686 5.56368 36.8283 5.4509 36.8283 5.30589C36.8283 5.18506 36.8767 5.06422 36.9977 4.98366C37.1186 4.9031 37.2557 4.86282 37.4574 4.86282C37.6348 4.86282 37.8203 4.89504 37.9977 4.94338C38.1752 4.99171 38.3365 5.06422 38.4655 5.16089L38.5058 5.19311V4.21029L38.4816 4.20224C38.3607 4.1539 38.1994 4.10557 38.0058 4.06529C37.8122 4.03306 37.6348 4.01695 37.4896 4.01695C36.9896 4.01695 36.5783 4.13779 36.2557 4.40363C35.9331 4.65337 35.7798 4.99171 35.7798 5.38645C35.7798 5.59591 35.8121 5.78119 35.8847 5.93425C35.9573 6.08731 36.0621 6.23232 36.2073 6.35316C36.3525 6.46594 36.5622 6.59484 36.8525 6.71567C37.0944 6.8204 37.2799 6.90096 37.3929 6.96541C37.5058 7.02985 37.5784 7.10236 37.6348 7.15875C37.6751 7.22319 37.6993 7.30375 37.6993 7.40848C37.6993 7.70655 37.4735 7.85155 37.0138 7.85155C36.8364 7.85155 36.6509 7.81933 36.4331 7.74683C36.2154 7.67432 36.0137 7.5696 35.8444 7.44876L35.804 7.41654V8.43963L35.8282 8.44769C35.9815 8.52019 36.167 8.56853 36.3928 8.62492C36.6186 8.6652 36.8202 8.69742 36.9977 8.69742C37.538 8.69742 37.9816 8.57658 38.2961 8.31074C38.6187 8.05295 38.7881 7.72266 38.7881 7.2957C38.7881 6.99763 38.7075 6.73179 38.53 6.53039C38.2961 6.33705 38.0058 6.13565 37.5864 5.97453ZM41.5544 4.02501C40.8205 4.02501 40.2318 4.24252 39.8204 4.66948C39.4091 5.09644 39.1994 5.68452 39.1994 6.42566C39.1994 7.11847 39.4091 7.68238 39.8124 8.09323C40.2156 8.49602 40.764 8.70548 41.4496 8.70548C42.1674 8.70548 42.74 8.48797 43.1513 8.05295C43.5707 7.61793 43.7723 7.03791 43.7723 6.32094C43.7723 5.61202 43.5787 5.04811 43.1836 4.63726C42.8045 4.22641 42.248 4.02501 41.5544 4.02501ZM42.3851 7.45681C42.1916 7.70655 41.8851 7.82739 41.506 7.82739C41.1189 7.82739 40.8205 7.70655 40.6027 7.4407C40.385 7.19097 40.2801 6.82846 40.2801 6.36927C40.2801 5.89397 40.3931 5.53146 40.6027 5.27367C40.8205 5.01588 41.1189 4.88699 41.498 4.88699C41.8609 4.88699 42.1593 5.00783 42.369 5.25756C42.5787 5.50729 42.6916 5.86981 42.6916 6.3451C42.6916 6.82846 42.5868 7.20708 42.3851 7.45681ZM49.3775 4.98366V4.12168H48.321V2.80051L48.2887 2.80857L47.2887 3.10664L47.2645 3.11469V4.12168H45.6837V3.55777C45.6837 3.29998 45.7482 3.09858 45.8612 2.96969C45.9741 2.84079 46.1434 2.77635 46.3531 2.77635C46.4983 2.77635 46.6515 2.80857 46.8209 2.88107L46.8612 2.90524V1.99493L46.837 1.98687C46.6919 1.93853 46.4983 1.90631 46.2483 1.90631C45.9337 1.90631 45.6595 1.97881 45.4095 2.09965C45.1595 2.2366 44.974 2.42189 44.8369 2.67162C44.6998 2.9133 44.6272 3.1872 44.6272 3.50138V4.12168H43.8933V4.9756H44.6272V8.58464H45.6837V4.98366H47.2645V7.27959C47.2645 8.22212 47.7081 8.69742 48.5952 8.69742C48.7404 8.69742 48.8936 8.67325 49.0388 8.64909C49.192 8.61686 49.3049 8.57658 49.3695 8.54436L49.3775 8.5363V7.67432L49.3372 7.70655C49.2727 7.74683 49.2162 7.77905 49.1194 7.80322C49.0388 7.82739 48.9662 7.83544 48.9097 7.83544C48.7001 7.83544 48.5549 7.78711 48.45 7.66627C48.3533 7.55349 48.3049 7.3682 48.3049 7.0943V4.98366H49.3775Z" fill="#60658C"/>
<path d="M0.672729 0.287048H5.61661V5.2253H0.672729V0.287048Z" fill="#60658C"/>
<path d="M6.13281 0.287048H11.0767V5.2253H6.13281V0.287048Z" fill="#60658C"/>
<path d="M0.672729 5.74091H5.61661V10.6792H0.672729V5.74091Z" fill="#60658C"/>
<path d="M6.13281 5.74091H11.0767V10.6792H6.13281V5.74091Z" fill="#60658C"/>
</g>
<defs>
<clipPath id="clip0_1_3952">
<rect width="48.7129" height="10.3921" fill="white" transform="translate(0.672729 0.287048)"/>
</clipPath>
</defs>
</svg>
