<svg width="50" height="13" viewBox="0 0 50 13" fill="none" xmlns="http://www.w3.org/2000/svg">
<g clip-path="url(#clip0_1_3945)">
<path d="M16.2476 10.0046L16.854 8.59599C17.5094 9.08507 18.38 9.3394 19.2408 9.3394C19.8766 9.3394 20.2776 9.09486 20.2776 8.72315C20.2678 7.68629 16.4725 8.49817 16.4432 5.89624C16.4334 4.57571 17.6072 3.55841 19.2701 3.55841C20.2581 3.55841 21.246 3.80295 21.9503 4.36051L21.383 5.79842C20.7374 5.38759 19.9353 5.09414 19.1723 5.09414C18.6539 5.09414 18.3115 5.33868 18.3115 5.65169C18.3213 6.66899 22.1459 6.11143 22.1851 8.59599C22.1851 9.94586 21.0406 10.8947 19.3973 10.8947C18.1941 10.8947 17.0888 10.611 16.2476 10.0046ZM39.5182 8.08734C39.215 8.61555 38.6477 8.97748 37.9923 8.97748C37.0239 8.97748 36.2414 8.19494 36.2414 7.22655C36.2414 6.25816 37.0239 5.47562 37.9923 5.47562C38.6477 5.47562 39.215 5.83755 39.5182 6.36576L41.1909 5.4365C40.5649 4.32138 39.3617 3.55841 37.9923 3.55841C35.9675 3.55841 34.3242 5.20174 34.3242 7.22655C34.3242 9.25136 35.9675 10.8947 37.9923 10.8947C39.3715 10.8947 40.5649 10.1415 41.1909 9.0166L39.5182 8.08734ZM23.0263 0.516296H25.1196V10.7577H23.0263V0.516296ZM42.0126 0.516296V10.7577H44.1059V7.68629L46.5904 10.7577H49.2706L46.1111 7.10917L49.0359 3.70513H46.473L44.1059 6.53205V0.516296H42.0126ZM31.3407 8.1069C31.0375 8.60577 30.4115 8.97748 29.7072 8.97748C28.7388 8.97748 27.9563 8.19494 27.9563 7.22655C27.9563 6.25816 28.7388 5.47562 29.7072 5.47562C30.4115 5.47562 31.0375 5.86689 31.3407 6.37554V8.1069ZM31.3407 3.70513V4.53658C30.9984 3.95946 30.1474 3.55841 29.2572 3.55841C27.4183 3.55841 25.9706 5.18217 25.9706 7.21677C25.9706 9.25136 27.4183 10.8947 29.2572 10.8947C30.1474 10.8947 30.9984 10.4936 31.3407 9.91652V10.748H33.434V3.70513H31.3407Z" fill="#303E49"/>
<path d="M3.30637 8.09709C3.30637 8.81116 2.72925 9.38828 2.01518 9.38828C1.30112 9.38828 0.723999 8.81116 0.723999 8.09709C0.723999 7.38303 1.30112 6.80591 2.01518 6.80591H3.30637V8.09709ZM3.95196 8.09709C3.95196 7.38303 4.52908 6.80591 5.24315 6.80591C5.95721 6.80591 6.53434 7.38303 6.53434 8.09709V11.3251C6.53434 12.0391 5.95721 12.6162 5.24315 12.6162C4.52908 12.6162 3.95196 12.0391 3.95196 11.3251V8.09709Z" fill="#303E49"/>
<path d="M5.24317 2.91282C4.5291 2.91282 3.95198 2.33569 3.95198 1.62163C3.95198 0.907565 4.5291 0.330444 5.24317 0.330444C5.95723 0.330444 6.53435 0.907565 6.53435 1.62163V2.91282H5.24317ZM5.24317 3.56819C5.95723 3.56819 6.53435 4.14531 6.53435 4.85938C6.53435 5.57344 5.95723 6.15056 5.24317 6.15056H2.00542C1.29135 6.15056 0.714233 5.57344 0.714233 4.85938C0.714233 4.14531 1.29135 3.56819 2.00542 3.56819H5.24317Z" fill="#303E49"/>
<path d="M10.4177 4.85938C10.4177 4.14531 10.9948 3.56819 11.7088 3.56819C12.4229 3.56819 13 4.14531 13 4.85938C13 5.57344 12.4229 6.15056 11.7088 6.15056H10.4177V4.85938ZM9.77207 4.85938C9.77207 5.57344 9.19495 6.15056 8.48088 6.15056C7.76682 6.15056 7.1897 5.57344 7.1897 4.85938V1.62163C7.1897 0.907565 7.76682 0.330444 8.48088 0.330444C9.19495 0.330444 9.77207 0.907565 9.77207 1.62163V4.85938Z" fill="#303E49"/>
<path d="M8.48088 10.0339C9.19495 10.0339 9.77207 10.611 9.77207 11.3251C9.77207 12.0391 9.19495 12.6162 8.48088 12.6162C7.76682 12.6162 7.1897 12.0391 7.1897 11.3251V10.0339H8.48088ZM8.48088 9.38828C7.76682 9.38828 7.1897 8.81116 7.1897 8.09709C7.1897 7.38303 7.76682 6.80591 8.48088 6.80591H11.7186C12.4327 6.80591 13.0098 7.38303 13.0098 8.09709C13.0098 8.81116 12.4327 9.38828 11.7186 9.38828H8.48088Z" fill="#303E49"/>
</g>
<defs>
<clipPath id="clip0_1_3945">
<rect width="48.7129" height="12.4228" fill="white" transform="translate(0.645752 0.271729)"/>
</clipPath>
</defs>
</svg>
