<svg width="53" height="9" viewBox="0 0 53 9" fill="none" xmlns="http://www.w3.org/2000/svg">
<g opacity="0.5" clip-path="url(#clip0_1_3941)">
<path d="M24.2598 3.61575C23.484 3.61575 22.9338 4.24074 22.9338 5.20012V8.71931H21.7496V2.52494H22.9196V3.28135C23.0639 3.03065 23.2707 2.82425 23.5186 2.68355C23.7664 2.54285 24.0464 2.47296 24.3293 2.48114H24.7547V3.61575H24.2598ZM20.9313 5.62213C20.9313 3.77492 19.6549 2.39352 17.9275 2.39352C17.5194 2.39638 17.1158 2.48229 16.7401 2.64633C16.3643 2.81037 16.0238 3.04929 15.738 3.34935C15.4522 3.64941 15.2269 4.00469 15.075 4.39474C14.9231 4.78479 14.8476 5.20192 14.8529 5.62213C14.8529 7.46788 16.2356 8.86388 18.0396 8.86388C18.5435 8.87368 19.0423 8.75861 19.494 8.52836C19.9456 8.29812 20.3369 7.95945 20.6349 7.54089L19.7754 6.89254C19.5783 7.17589 19.3174 7.40585 19.0151 7.56276C18.7128 7.71966 18.3781 7.79884 18.0396 7.79352C17.5575 7.79117 17.0921 7.61108 16.7279 7.28586C16.3636 6.96065 16.1246 6.51184 16.0541 6.02078H20.9341L20.9313 5.62213ZM16.0796 5.05409C16.2909 4.10931 17.0241 3.46972 17.9133 3.46972C18.8026 3.46972 19.5343 4.10931 19.7329 5.05409H16.0796ZM11.1017 2.39352C10.706 2.39387 10.3142 2.47495 9.94909 2.6321C9.58396 2.78926 9.25269 3.01935 8.97443 3.3091V0.211914H7.79023V8.71931H8.96025V7.9337C9.52706 8.5241 10.2983 8.85866 11.1046 8.86388C11.5228 8.87303 11.9386 8.79611 12.3276 8.63764C12.7166 8.47917 13.0709 8.24233 13.3698 7.94101C13.6688 7.63969 13.9063 7.27995 14.0684 6.88289C14.2305 6.48583 14.3141 6.05943 14.3141 5.6287C14.3141 5.19797 14.2305 4.77157 14.0684 4.37451C13.9063 3.97745 13.6688 3.61771 13.3698 3.31639C13.0709 3.01507 12.7166 2.77823 12.3276 2.61976C11.9386 2.46129 11.5228 2.38437 11.1046 2.39352H11.1017ZM11.0166 7.77453C10.6039 7.77656 10.1998 7.65228 9.85577 7.41749C9.51171 7.18269 9.24314 6.84795 9.08415 6.45574C8.92515 6.06353 8.88289 5.63153 8.96273 5.21455C9.04256 4.79757 9.2409 4.4144 9.53257 4.11367C9.82424 3.81295 10.1961 3.6082 10.601 3.52543C11.0058 3.44265 11.4255 3.48558 11.8066 3.64875C12.1877 3.81193 12.5132 4.088 12.7417 4.44194C12.9702 4.79587 13.0914 5.21173 13.09 5.63673C13.0904 5.91706 13.037 6.1947 12.9329 6.45373C12.8288 6.71275 12.6761 6.94806 12.4834 7.14615C12.2908 7.34423 12.062 7.5012 11.8103 7.60803C11.5586 7.71486 11.2889 7.76946 11.0166 7.76869V7.77453ZM3.42927 7.71612C4.57233 7.71612 5.46013 6.81369 5.46013 5.4615V0.211914H6.68687V8.71931H5.47431V7.91472C5.19101 8.21618 4.85127 8.45535 4.47563 8.61774C4.09999 8.78013 3.69626 8.86237 3.28886 8.8595C1.52604 8.8595 0.168823 7.53651 0.168823 5.53013V0.211914H1.41826V5.4688C1.41826 6.82829 2.26918 7.71612 3.42927 7.71612Z" fill="#60658C"/>
<path d="M27.7003 0.211914H33.4965V1.67216H29.266V3.74571H33.3788V5.15631H29.266V7.26491H33.4965V8.72515H27.7003V0.211914ZM49.5037 8.87848C51.2807 8.87848 52.282 8.00233 52.282 6.79909C52.282 5.94192 51.6892 5.30233 50.4483 5.02489L49.1364 4.7489C48.3748 4.60288 48.1352 4.45685 48.1352 4.1648C48.1352 3.7866 48.5025 3.55442 49.179 3.55442C49.9122 3.55442 50.4553 3.75739 50.5972 4.45539H52.1345C52.0508 3.14117 51.1332 2.27378 49.2726 2.27378C47.6643 2.27378 46.5354 2.95718 46.5354 4.28162C46.5354 5.1972 47.1566 5.79298 48.4968 6.08357L49.9632 6.43257C50.5419 6.54939 50.6964 6.71001 50.6964 6.95679C50.6964 7.3496 50.2596 7.59638 49.5534 7.59638C48.6656 7.59638 48.1579 7.39341 47.9607 6.69541H46.4149C46.6404 8.00671 47.5849 8.87848 49.5037 8.87848ZM45.9682 8.71931H44.3046C43.2608 8.71931 42.6822 8.05052 42.6822 7.2065V3.86253H41.5122V2.43733H42.6879V0.648528H44.2337V2.43733H45.9682V3.86253H44.2337V6.79909C44.2337 7.13348 44.4592 7.29411 44.8123 7.29411H45.9682V8.71931ZM39.3026 2.44025V3.00683C38.7583 2.5331 38.0681 2.27429 37.3554 2.2767C36.9288 2.26746 36.5046 2.34601 36.1078 2.50775C35.711 2.66948 35.3495 2.91114 35.0446 3.21858C34.7397 3.52601 34.4974 3.89302 34.332 4.2981C34.1666 4.70318 34.0814 5.13817 34.0814 5.57759C34.0814 6.01701 34.1666 6.45201 34.332 6.85709C34.4974 7.26217 34.7397 7.62918 35.0446 7.93661C35.3495 8.24404 35.711 8.4857 36.1078 8.64744C36.5046 8.80917 36.9288 8.88772 37.3554 8.87848C38.0682 8.88167 38.7587 8.62275 39.3026 8.14836V8.71639H40.8442V2.43733L39.3026 2.44025ZM37.4831 7.50001C37.1133 7.50435 36.7506 7.3954 36.4411 7.18699C36.1316 6.97859 35.8892 6.68014 35.7449 6.32959C35.6005 5.97903 35.5606 5.59219 35.6302 5.21823C35.6999 4.84427 35.8759 4.50008 36.136 4.22939C36.3961 3.95871 36.7285 3.77375 37.0909 3.69803C37.4534 3.62231 37.8295 3.65925 38.1715 3.80414C38.5134 3.94904 38.8059 4.19535 39.0116 4.51178C39.2173 4.82821 39.327 5.20047 39.3267 5.58124C39.329 5.83225 39.2829 6.08122 39.191 6.31376C39.0992 6.54629 38.9635 6.75776 38.7918 6.93594C38.6201 7.11411 38.4157 7.25545 38.1906 7.35177C37.9655 7.44809 37.724 7.49748 37.4802 7.49709L37.4831 7.50001Z" fill="#60658C"/>
</g>
<defs>
<clipPath id="clip0_1_3941">
<rect width="52.3316" height="8.9075" fill="white" transform="translate(0 0.0293579)"/>
</clipPath>
</defs>
</svg>
